<?xml version="1.0" standalone="no"?>
<!DOCTYPE svg PUBLIC "-//W3C//DTD SVG 20010904//EN"
 "http://www.w3.org/TR/2001/REC-SVG-20010904/DTD/svg10.dtd">
<svg version="1.0" xmlns="http://www.w3.org/2000/svg"
 width="1000.000000pt" height="1000.000000pt" viewBox="0 0 1000.000000 1000.000000"
 preserveAspectRatio="xMidYMid meet">
<metadata>
Created by potrace 1.14, written by Peter Selinger 2001-2017
</metadata>
<g transform="translate(0.000000,1000.000000) scale(0.100000,-0.100000)"
fill="#000000" stroke="none">
<path d="M5119 8152 c-30 -31 -210 -209 -400 -394 -189 -185 -418 -410 -509
-499 -91 -89 -340 -334 -555 -544 -395 -388 -438 -430 -1035 -1015 -184 -180
-365 -357 -401 -393 -57 -56 -68 -63 -72 -46 -6 22 32 20 -458 20 l-317 0 -49
-48 c-27 -26 -103 -96 -170 -155 l-121 -108 -56 0 -56 0 0 144 c0 110 -3 146
-14 155 -9 8 -60 11 -157 9 l-143 -3 -7 -25 c-11 -40 -10 -905 1 -935 l10 -26
152 3 153 3 3 178 2 177 46 0 c40 0 53 -6 101 -47 31 -27 73 -65 94 -85 21
-21 42 -38 47 -38 4 0 26 -18 47 -40 l40 -40 -155 -151 c-85 -83 -246 -241
-357 -351 l-203 -200 0 -139 c0 -76 3 -139 7 -139 3 0 39 33 78 73 40 39 238
234 440 432 l367 360 202 5 201 5 3 37 c3 34 0 39 -55 79 -64 46 -113 89 -113
99 0 8 257 264 268 268 5 1 13 -8 19 -20 6 -13 41 -84 77 -158 36 -74 66 -139
66 -143 0 -5 8 -21 19 -35 10 -15 31 -51 46 -80 l27 -52 237 2 236 3 5 25 c4
20 168 357 224 460 7 14 20 41 28 60 26 60 47 104 61 130 8 14 19 36 25 50 51
120 47 145 52 -300 3 -223 9 -411 13 -417 6 -10 51 -13 167 -13 153 0 160 1
171 22 8 15 10 104 7 320 -4 262 -3 294 10 265 7 -17 20 -43 28 -57 8 -14 62
-119 120 -235 58 -115 112 -221 119 -235 7 -14 18 -37 24 -52 l11 -28 140 0
140 0 11 28 c6 15 18 41 27 57 18 35 14 27 91 185 34 69 68 136 75 150 8 14
27 50 41 80 15 30 38 75 52 100 l24 45 -5 -304 c-3 -193 -2 -310 5 -322 9 -17
24 -19 164 -19 142 0 155 2 165 19 6 13 10 138 10 340 l0 321 190 0 190 0 2
-337 3 -338 170 -3 c151 -2 171 -1 182 15 10 13 13 96 13 340 l0 322 195 3
195 3 2 -340 3 -340 524 -3 c378 -1 528 1 537 9 9 7 14 33 14 70 l0 58 54 -55
c30 -30 62 -54 71 -54 9 0 28 -8 42 -17 25 -16 63 -18 424 -18 364 0 399 1
416 18 11 9 25 17 31 17 22 0 90 49 115 82 30 40 38 75 44 193 6 130 12 126
-180 126 -87 0 -162 -3 -167 -6 -6 -4 -10 -25 -10 -48 0 -55 -6 -62 -62 -75
-58 -15 -302 -15 -379 0 -74 13 -79 26 -79 181 0 141 12 197 40 197 10 0 22 5
25 10 9 15 346 13 395 -2 35 -11 40 -16 40 -44 0 -52 14 -56 185 -56 85 0 159
3 165 7 13 8 13 182 0 190 -5 3 -10 21 -10 38 0 40 -67 121 -107 132 -15 3
-32 14 -39 23 -11 15 -50 17 -424 17 -380 0 -413 -1 -424 -18 -7 -9 -20 -17
-29 -17 -24 0 -97 -40 -97 -54 0 -6 -13 -27 -29 -45 l-29 -35 -1 74 c0 41 -5
78 -10 83 -6 6 -600 10 -1036 6 -11 0 -272 0 -580 0 -308 0 -571 0 -585 0 -14
0 -142 0 -284 1 -142 1 -262 -3 -266 -7 -4 -4 -17 -35 -30 -68 -13 -33 -36
-79 -52 -102 -15 -23 -28 -50 -28 -59 0 -10 -20 -59 -44 -108 -24 -50 -52
-110 -62 -133 -9 -23 -21 -40 -25 -37 -7 4 -59 110 -94 189 -7 17 -29 66 -50
110 -20 44 -41 91 -47 105 -6 14 -14 33 -19 42 -5 10 -9 27 -9 37 0 11 -5 23
-10 26 -12 8 -876 9 -888 1 -8 -5 -42 -71 -121 -236 -17 -36 -42 -84 -56 -108
-14 -23 -25 -49 -25 -57 0 -8 -9 -23 -21 -33 -11 -11 -19 -26 -18 -33 2 -8
-15 -50 -36 -94 -22 -44 -42 -88 -45 -99 -5 -18 -6 -17 -57 79 -6 11 -22 45
-36 75 -13 30 -48 104 -78 164 l-53 109 261 256 c241 237 781 766 1104 1083
123 119 443 434 1163 1140 l241 237 5 -332 5 -332 78 97 77 96 -2 461 -3 461
-56 -58z m-3278 -3077 l46 -95 -174 -170 -174 -170 -92 77 c-51 42 -93 79 -95
83 -1 4 23 26 54 51 66 51 140 114 279 233 55 47 102 85 105 86 3 0 26 -43 51
-95z m5076 13 c-3 -8 -6 -5 -6 6 -1 11 2 17 5 13 3 -3 4 -12 1 -19z m-17 -300
l0 -203 -355 3 -355 2 0 38 0 38 332 0 c207 -1 336 3 344 9 8 7 13 50 16 135
l3 125 -347 3 -348 2 0 25 0 25 355 0 355 0 0 -202z"/>
<path d="M8215 5280 l-60 -5 -3 -479 c-1 -350 1 -482 9 -493 9 -11 46 -13 178
-11 l166 3 3 168 2 167 275 0 275 0 2 -167 3 -168 163 -3 162 -2 10 26 c15 38
9 939 -6 954 -12 12 -304 17 -323 6 -7 -5 -11 -61 -11 -162 l0 -154 -275 0
-275 0 0 155 c0 115 -3 157 -12 160 -19 7 -215 11 -283 5z"/>
<path d="M1357 4108 c-541 -525 -717 -698 -717 -704 0 -2 1362 -4 3028 -4
l3027 0 85 81 c47 45 213 207 370 360 157 153 306 298 333 323 26 25 47 48 47
51 0 3 -1363 5 -3028 5 l-3029 0 -116 -112z"/>
</g>
</svg>
