<svg width="299" height="299" viewBox="0 0 299 299" fill="none" xmlns="http://www.w3.org/2000/svg">
<g clip-path="url(#clip0_3_8425)">
<path d="M25.5702 190.134L35.5007 160.342C36.1759 158.315 38.0714 156.948 40.2077 156.946H65.0338C67.7758 156.946 69.999 159.169 69.999 161.911V186.738C69.9996 189.208 68.1842 191.302 65.7389 191.653L30.9823 196.618C30.749 196.652 30.5131 196.669 30.2773 196.668C27.5352 196.666 25.3139 194.441 25.3158 191.699C25.3164 191.167 25.402 190.638 25.5702 190.134ZM60.0686 182.433V166.877H43.7876L37.5265 185.65L60.0686 182.433Z" fill="#2D2D2D"/>
<path d="M10.4167 92.3977C8.28037 92.3959 6.38489 91.0286 5.70962 89.0015L0.744398 74.1059C0.574339 73.6 0.487457 73.0706 0.486216 72.5369V52.676C0.486216 49.9339 2.70939 47.7108 5.45144 47.7108H227.953C236.167 33.4705 254.37 28.5854 268.611 36.7997C277.833 42.1193 283.512 51.9597 283.504 62.6064V176.806H293.434C296.176 176.806 298.399 179.03 298.399 181.772V241.354C298.399 244.096 296.176 246.32 293.434 246.32H288.469V256.25H293.434V266.18H273.573V256.25H278.539V246.32H258.181C255.439 259.754 242.325 268.421 228.891 265.679C215.457 262.937 206.79 249.823 209.532 236.389C212.274 222.955 225.388 214.288 238.822 217.03C248.572 219.02 256.191 226.639 258.181 236.389H268.608V206.598H161.429L149.443 218.584V236.389H159.87C162.612 222.955 175.726 214.288 189.16 217.03C202.594 219.772 211.261 232.886 208.519 246.32C205.777 259.754 192.663 268.421 179.229 265.679C169.479 263.689 161.86 256.069 159.87 246.32H99.7906V256.25H104.756V266.18H84.895V256.25H89.8602V246.32H69.5028C66.7744 259.757 53.6699 268.437 40.2328 265.709C30.4631 263.725 22.8272 256.089 20.8436 246.32H5.45144C2.70939 246.32 0.486216 244.096 0.486216 241.354V191.702C0.486216 191.07 0.605997 190.443 0.838742 189.855L20.6996 140.203C21.455 138.318 23.2815 137.083 25.3123 137.085H84.895C87.637 137.085 89.8602 139.308 89.8602 142.05V176.806H174.269V146.34C174.288 130.267 187.313 117.243 203.385 117.224H223.921V110.814L128.738 77.5021H38.8177L34.9846 89.0015C34.3093 91.0286 32.4138 92.3959 30.2775 92.3977H25.3123V102.328C25.3123 105.07 23.0891 107.293 20.3471 107.293C17.6051 107.293 15.3819 109.517 15.3819 112.259C15.3819 115.001 17.6051 117.224 20.3471 117.224C23.0891 117.224 25.3123 115.001 25.3123 112.259H35.2428C35.2409 120.485 28.5707 127.153 20.344 127.151C12.1172 127.149 5.44957 120.479 5.45144 112.252C5.45268 105.941 9.43106 100.315 15.3819 98.2114V92.3971H10.4167V92.3977ZM233.852 226.459C225.625 226.459 218.956 233.128 218.956 241.354C218.956 249.581 225.625 256.25 233.852 256.25C242.078 256.25 248.747 249.581 248.747 241.354C248.747 233.128 242.078 226.459 233.852 226.459ZM184.199 256.25C192.426 256.25 199.095 249.581 199.095 241.354C199.095 233.128 192.426 226.459 184.199 226.459C175.973 226.459 169.304 233.128 169.304 241.354C169.304 249.581 175.973 256.25 184.199 256.25ZM45.1732 256.25C53.3999 256.25 60.0689 249.581 60.0689 241.354C60.0689 233.128 53.3999 226.459 45.1732 226.459C36.9464 226.459 30.2775 233.128 30.2775 241.354C30.2775 249.581 36.9464 256.25 45.1732 256.25ZM79.9297 147.015H28.6738L10.4167 192.655V211.563H20.3471V221.493H10.4167V236.389H20.8436C23.572 222.952 36.6765 214.272 50.1136 217C59.8833 218.984 67.5192 226.619 69.5028 236.389H79.9297V147.015ZM273.573 62.6064C273.573 51.6376 264.681 42.7455 253.712 42.7455C242.744 42.7455 233.852 51.6376 233.852 62.6064V176.806H273.573V62.6064ZM278.539 236.389H288.469V206.598H278.539V236.389ZM89.8602 236.389H99.7906V206.598H89.8602V236.389ZM89.8602 186.737V196.667H104.756C107.498 196.667 109.721 198.891 109.721 201.633V236.389H139.512V216.528C139.512 215.211 140.036 213.949 140.967 213.018L155.863 198.122C156.794 197.191 158.056 196.667 159.373 196.667H288.469V186.737H89.8602ZM204.06 127.154H203.385C192.794 127.165 184.211 135.748 184.199 146.34V151.98H204.06V127.154ZM213.991 127.154V156.946C213.991 159.688 211.767 161.911 209.025 161.911H184.199V176.806H223.921V127.154H213.991ZM223.921 100.297V77.5021H158.797L223.921 100.297ZM69.9993 67.5716H223.921V57.6412H69.9993V67.5716ZM40.208 67.5716H60.0689V57.6412H40.208V67.5716ZM26.6976 82.4673L30.2775 71.7325V57.6412H10.4167V71.7325L13.9966 82.4673H26.6976V82.4673Z" fill="#2D2D2D"/>
</g>
<defs>
<clipPath id="clip0_3_8425">
<rect width="297.913" height="297.913" fill="white" transform="matrix(-1 0 0 1 298.399 0.555664)"/>
</clipPath>
</defs>
</svg>
