<?xml version="1.0" standalone="no"?>
<!DOCTYPE svg PUBLIC "-//W3C//DTD SVG 20010904//EN"
 "http://www.w3.org/TR/2001/REC-SVG-20010904/DTD/svg10.dtd">
<svg version="1.0" xmlns="http://www.w3.org/2000/svg"
 width="133" height="77" viewBox="0 0 133 77"
 preserveAspectRatio="xMidYMid meet">

<g transform="translate(0.000000,522.000000) scale(0.100000,-0.100000)"
fill="#fff" stroke="none">
<path d="M1258 4171 l-33 -29 0 -126 c0 -122 1 -126 26 -152 16 -16 41 -28 67
-31 23 -3 42 -6 42 -7 0 -1 -83 -250 -184 -554 l-184 -552 94 0 94 0 0 -56 c0
-49 -3 -58 -30 -81 -17 -14 -43 -49 -58 -77 -27 -50 -27 -53 -27 -251 l0 -200
31 -66 c44 -93 93 -142 182 -187 l76 -37 1220 -3 c849 -2 1237 1 1273 8 110
23 228 115 273 211 21 44 27 49 57 49 l33 0 0 -135 0 -135 530 0 530 0 0 210
0 210 -48 0 c-159 0 -299 86 -368 226 -36 71 -38 81 -44 207 -10 190 -49 266
-168 324 -55 27 -63 28 -244 31 l-188 4 0 -151 0 -151 -119 0 c-105 0 -120 2
-125 18 -3 9 -28 145 -56 302 -30 162 -59 298 -69 315 -28 48 -79 70 -214 90
-67 10 -128 22 -134 28 -10 7 -13 77 -13 287 0 271 -1 278 -22 310 -67 97
-219 90 -276 -13 -15 -28 -17 -68 -20 -285 l-4 -254 -31 6 c-18 3 -111 17
-207 32 -96 15 -176 27 -177 28 -1 1 -6 57 -13 126 -6 69 -13 135 -16 148 -4
20 -1 22 46 22 l50 0 0 185 0 185 -760 0 -760 0 -32 -29z m1422 -156 l0 -55
-56 0 -56 0 6 -37 c3 -21 15 -141 27 -268 12 -126 23 -232 24 -233 2 -2 248
-42 547 -89 299 -47 547 -89 552 -94 9 -8 120 -588 114 -595 -2 -1 -21 1 -43
6 -22 5 -276 10 -565 10 -289 0 -530 4 -535 8 -6 4 -17 27 -24 52 -16 54 -67
105 -119 120 -24 6 -276 10 -704 10 -528 0 -668 3 -668 13 0 6 81 255 180 552
99 297 180 541 180 543 0 1 -43 2 -95 2 l-95 0 0 55 0 55 665 0 665 0 0 -55z
m668 -67 c15 -15 17 -494 2 -503 -5 -3 -21 -3 -35 1 l-25 6 0 242 c0 241 3
266 35 266 6 0 16 -5 23 -12z m1225 -1122 c39 -16 82 -61 96 -99 6 -16 11 -70
11 -121 0 -161 44 -277 149 -388 69 -74 162 -128 259 -150 l52 -13 0 -82 0
-83 -400 0 -400 0 0 475 0 475 100 0 c63 0 113 -5 133 -14z m-2045 -122 c12
-8 22 -22 22 -30 0 -12 -86 -14 -620 -14 l-620 0 0 23 c0 13 3 27 7 30 3 4
272 7 597 7 519 0 594 -2 614 -16z m1682 -239 l0 -75 -45 0 c-34 0 -47 5 -55
20 -6 11 -31 45 -56 75 l-44 55 100 0 100 0 0 -75z m-2697 46 c-108 -37 -178
-110 -210 -220 -43 -150 49 -325 199 -378 l53 -18 -70 -3 c-104 -5 -150 12
-216 77 -74 75 -81 104 -77 306 3 146 5 163 25 191 38 54 72 64 218 63 l130 0
-52 -18z m2307 -12 c56 -26 130 -83 130 -100 0 -5 -372 -9 -890 -9 -976 0
-920 3 -973 -59 -71 -85 -55 -208 36 -275 28 -21 34 -21 955 -26 l927 -5 -45
-45 c-25 -25 -63 -54 -85 -65 -39 -20 -66 -20 -1130 -22 -1068 -2 -1089 -2
-1043 16 70 28 114 58 149 102 94 119 91 293 -7 408 -38 44 -71 66 -144 93
-43 16 11 17 1010 15 l1055 -2 55 -26z m-2145 -118 c130 -60 156 -216 52 -308
-32 -28 -90 -53 -122 -53 -29 0 -88 24 -115 47 -112 94 -81 269 57 318 52 19
81 18 128 -4z m2533 -168 l-3 -48 -1002 -3 -1002 -2 -16 24 c-12 18 -13 30 -6
50 l11 26 1010 0 1011 0 -3 -47z"/>
<path d="M1665 3936 c-40 -18 -45 -27 -100 -206 -26 -85 -59 -191 -73 -235
-42 -130 -28 -195 49 -222 44 -15 727 -18 781 -3 20 6 46 22 58 37 19 24 20
39 20 297 0 297 -1 300 -60 331 -40 21 -629 21 -675 1z m605 -326 l0 -210
-330 0 c-257 0 -330 3 -330 13 0 6 16 64 35 127 20 63 47 152 61 198 l25 82
270 0 269 0 0 -210z"/>
<path d="M1440 3035 l0 -65 275 0 275 0 0 65 0 65 -275 0 -275 0 0 -65z"/>
<path d="M4554 1580 c-110 -23 -165 -66 -193 -153 -35 -107 -71 -270 -71 -324
0 -45 4 -54 30 -77 39 -32 82 -41 200 -41 89 0 100 2 165 35 80 41 98 62 124
148 l19 62 -109 0 c-79 0 -111 -3 -113 -12 -39 -130 -41 -133 -69 -136 -18 -2
-29 2 -33 13 -8 19 72 342 92 373 9 13 25 22 39 22 30 0 33 -26 11 -107 l-14
-53 108 0 c60 0 111 4 114 9 3 5 11 41 18 80 11 66 11 73 -8 98 -33 45 -83 64
-181 68 -48 2 -106 0 -129 -5z"/>
<path d="M751 1295 c-39 -157 -71 -289 -71 -295 0 -6 41 -10 105 -10 l104 0
10 38 c5 20 19 72 30 115 10 43 21 81 24 83 2 2 9 -37 16 -88 7 -51 14 -105
17 -120 l6 -28 109 0 c108 0 109 0 104 23 -3 12 -16 85 -30 161 l-24 139 87
121 c49 67 91 127 96 134 5 9 -15 12 -91 12 l-98 0 -75 -106 c-41 -58 -76
-101 -78 -96 -1 5 8 53 21 106 l25 96 -108 0 -108 0 -71 -285z"/>
<path d="M1486 1373 c-3 -115 -8 -247 -11 -296 l-5 -87 167 2 167 3 128 285
c70 157 127 288 127 293 1 4 -50 7 -113 7 l-113 0 -60 -157 c-33 -87 -66 -175
-73 -196 -6 -21 -14 -37 -15 -35 -2 2 5 78 15 168 11 91 20 177 20 193 l0 27
-114 0 -114 0 -6 -207z"/>
<path d="M2181 1295 c-39 -157 -71 -289 -71 -295 0 -6 37 -10 93 -10 l93 0 52
193 52 192 -5 -80 c-2 -44 -7 -131 -11 -192 l-7 -113 69 0 69 0 79 186 c43
101 80 184 81 182 2 -2 -16 -84 -40 -183 l-42 -180 90 -3 c50 -1 93 1 97 5 4
4 37 130 74 278 37 149 69 278 72 288 5 16 -6 17 -138 17 l-143 0 -54 -125
c-30 -69 -57 -127 -60 -129 -3 -2 -5 54 -3 125 l3 129 -139 0 -140 0 -71 -285z"/>
<path d="M3112 1529 c-7 -28 -12 -55 -12 -60 0 -5 27 -9 60 -9 35 0 60 -4 60
-10 0 -6 -25 -109 -55 -230 -30 -121 -55 -222 -55 -225 0 -3 48 -5 108 -5
l107 0 59 235 58 235 67 0 68 0 11 51 c7 28 12 55 12 60 0 5 -99 9 -238 9
l-239 0 -11 -51z"/>
<path d="M3741 1295 c-39 -157 -71 -289 -71 -295 0 -6 68 -10 188 -10 l189 0
11 51 c7 28 12 55 12 60 0 5 -35 9 -79 9 l-78 0 15 65 16 64 70 3 c76 3 69 -3
90 81 l6 27 -69 0 c-52 0 -69 3 -66 13 2 6 9 31 15 55 l11 42 73 0 74 0 15 60
15 60 -183 0 -183 0 -71 -285z"/>
<path d="M5071 1295 c-39 -157 -71 -289 -71 -295 0 -7 37 -10 107 -8 l107 3
30 123 30 122 33 0 c18 0 33 -3 33 -6 0 -6 -47 -197 -56 -226 -5 -16 5 -18
105 -18 l110 0 10 38 c6 20 39 153 74 295 l65 258 -111 -3 -111 -3 -26 -105
c-26 -105 -26 -105 -58 -108 -19 -2 -32 1 -32 8 0 10 33 148 46 193 5 15 -5
17 -104 17 l-110 0 -71 -285z"/>
</g>
</svg>
